<?xml version="1.0" encoding="UTF-8" standalone="no"?>
<!-- Generator: Adobe Illustrator 18.0.0, SVG Export Plug-In . SVG Version: 6.00 Build 0)  -->

<svg
   xmlns:dc="http://purl.org/dc/elements/1.1/"
   xmlns:cc="http://creativecommons.org/ns#"
   xmlns:rdf="http://www.w3.org/1999/02/22-rdf-syntax-ns#"
   xmlns:svg="http://www.w3.org/2000/svg"
   xmlns="http://www.w3.org/2000/svg"
   xmlns:xlink="http://www.w3.org/1999/xlink"
   xmlns:sodipodi="http://sodipodi.sourceforge.net/DTD/sodipodi-0.dtd"
   xmlns:inkscape="http://www.inkscape.org/namespaces/inkscape"
   version="1.1"
   id="Layer_1"
   x="0px"
   y="0px"
   viewBox="0 0 389.20133 389.10133"
   enable-background="new 0 0 595.3 841.9"
   xml:space="preserve"
   inkscape:version="0.48.4 r9939"
   width="100%"
   height="100%"
   sodipodi:docname="loading.svg">
<style type="text/css" >
      <![CDATA[

        path {
           fill:   #000000 !important;
animation:myfirst 1s;
      -moz-animation:myfirst 1.2s infinite; /* Firefox */
    -webkit-animation:myfirst 1.2s infinite; /* Safari and Chrome */

	
        }
	path:nth-of-type(1) {
		-webkit-animation-delay: .1s; /* Chrome, Safari, Opera */
	    	animation-delay: .1s;
	}
	path:nth-of-type(2) {
		-webkit-animation-delay: .2s; /* Chrome, Safari, Opera */
	    	animation-delay: .2s;
	}
	path:nth-of-type(3) {
		-webkit-animation-delay: .3s; /* Chrome, Safari, Opera */
	    	animation-delay: .3s;
	}
	path:nth-of-type(4) {
		-webkit-animation-delay: .4s; /* Chrome, Safari, Opera */
	    	animation-delay: .4s;
	}
	path:nth-of-type(5) {
		-webkit-animation-delay: .5s; /* Chrome, Safari, Opera */
	    	animation-delay: .5s;
	}
	path:nth-of-type(6) {
		-webkit-animation-delay: .6s; /* Chrome, Safari, Opera */
	    	animation-delay: .6s;
	}
	path:nth-of-type(7) {
		-webkit-animation-delay: .7s; /* Chrome, Safari, Opera */
	    	animation-delay: .7s;
	}
	path:nth-of-type(8) {
		-webkit-animation-delay: .8s; /* Chrome, Safari, Opera */
	    	animation-delay: .8s;
	}
	path:nth-of-type(9) {
		-webkit-animation-delay: .9s; /* Chrome, Safari, Opera */
	    	animation-delay: .9s;
	}
	path:nth-of-type(10) {
		-webkit-animation-delay: 1s; /* Chrome, Safari, Opera */
	    	animation-delay: 1s;
	}
	path:nth-of-type(11) {
		-webkit-animation-delay: 1.1s; /* Chrome, Safari, Opera */
	    	animation-delay: 1.1s;
	}
	path:nth-of-type(12) {
		-webkit-animation-delay: 1.2s; /* Chrome, Safari, Opera */
	    	animation-delay: 1.2s;
	}

@-moz-keyframes myfirst /* Firefox */
    {
    0%   {fill:red;}
    50%  {fill:yellow;}
    100%   {fill:red;}
    }

        @-webkit-keyframes myfirst /* Safari and Chrome */
    {
    0%   {fill:red;}
    50%  {fill:yellow;}
    100%   {fill:red;}
    }

      ]]>
    </style>

<metadata
     id="metadata48"><rdf:RDF><cc:Work
         rdf:about=""><dc:format>image/svg+xml</dc:format><dc:type
           rdf:resource="http://purl.org/dc/dcmitype/StillImage" /><dc:title></dc:title></cc:Work></rdf:RDF></metadata><defs
     id="defs46"><linearGradient
       id="SVGID_1_"
       gradientUnits="userSpaceOnUse"
       x1="297.0524"
       y1="222.5844"
       x2="297.0524"
       y2="610.80957"><stop
         offset="0"
         style="stop-color:#231F20"
         id="stop22" /><stop
         offset="0.1291"
         style="stop-color:#2B2729"
         id="stop24" /><stop
         offset="0.3758"
         style="stop-color:#423F41"
         id="stop26" /><stop
         offset="0.7114"
         style="stop-color:#6A686A"
         id="stop28" /><stop
         offset="1"
         style="stop-color:#939599"
         id="stop30" /></linearGradient><linearGradient
       inkscape:collect="always"
       xlink:href="#SVGID_1_"
       id="linearGradient3059"
       gradientUnits="userSpaceOnUse"
       x1="297.0524"
       y1="222.5844"
       x2="297.0524"
       y2="610.80957"
       gradientTransform="translate(-102.49868,-225.49868)" /></defs><sodipodi:namedview
     pagecolor="#ffffff"
     bordercolor="#666666"
     borderopacity="1"
     objecttolerance="10"
     gridtolerance="10"
     guidetolerance="10"
     inkscape:pageopacity="0"
     inkscape:pageshadow="2"
     inkscape:window-width="991"
     inkscape:window-height="859"
     id="namedview44"
     showgrid="false"
     fit-margin-top="0"
     fit-margin-left="0"
     fit-margin-right="0"
     fit-margin-bottom="0"
     inkscape:zoom="1.5857199"
     inkscape:cx="195.15132"
     inkscape:cy="193.65001"
     inkscape:window-x="1705"
     inkscape:window-y="88"
     inkscape:window-maximized="0"
     inkscape:current-layer="Layer_1" /><path
     d="m 272.70132,29.20132 c 3.4,-5.9 11,-7.9 16.9,-4.5 l 4.6,2.6 c 5.9,3.4 7.9,11 4.5,16.9 l -30.4,52.7 c -3.4,5.9 -11,7.9 -16.9,4.5 l -4.6,-2.6 c -5.9,-3.4 -7.9,-11 -4.5,-16.9 l 30.4,-52.7 z"
     id="path15"
     inkscape:connector-curvature="0"
     style="fill:#fdfdfd" /><path
     d="m 344.90132,90.40132 c 5.9,-3.4 13.5,-1.4 16.9,4.5 l 2.7,4.6 c 3.4,5.9 1.4,13.5 -4.5,16.9 l -52.7,30.4 c -5.9,3.4 -13.5,1.4 -16.9,-4.5 l -2.6,-4.6 c -3.4,-5.9 -1.4,-13.5 4.5,-16.9 l 52.6,-30.4 z"
     id="path13"
     inkscape:connector-curvature="0"
     style="fill:#f1f2f2" /><path
     d="m 376.80132,179.50132 c 6.8,0 12.4,5.6 12.4,12.4 l 0,5.3 c 0,6.8 -5.6,12.4 -12.4,12.4 l -60.8,0 c -6.8,0 -12.3,-5.6 -12.3,-12.4 v -5.3 c 0,-6.8 5.6,-12.4 12.3,-12.4 l 60.8,0 z"
     id="path11"
     inkscape:connector-curvature="0"
     style="fill:#eaeaea" /><path
     d="m 359.90132,272.70132 c 5.9,3.4 7.9,11 4.5,16.9 l -2.6,4.6 c -3.4,5.9 -11,7.9 -16.9,4.5 l -52.7,-30.4 c -5.9,-3.4 -7.9,-11 -4.5,-16.9 l 2.6,-4.6 c 3.4,-5.9 11,-7.9 16.9,-4.5 l 52.7,30.4 z"
     id="path9"
     inkscape:connector-curvature="0"
     style="fill:#d6d6d6" /><path
     d="m 298.70132,344.90132 c 3.4,5.9 1.3,13.5 -4.5,16.9 l -4.6,2.6 c -5.9,3.4 -13.5,1.4 -16.9,-4.5 l -30.4,-52.7 c -3.4,-5.9 -1.4,-13.5 4.5,-16.9 l 4.6,-2.7 c 5.9,-3.4 13.5,-1.4 16.9,4.5 l 30.4,52.8 z"
     id="path7"
     inkscape:connector-curvature="0"
     style="fill:#bfbfbf" /><path
     d="m 209.60132,376.80132 c 0,6.8 -5.6,12.3 -12.4,12.3 h -5.3 c -6.8,0 -12.4,-5.6 -12.4,-12.3 v -60.8 c 0,-6.8 5.6,-12.3 12.4,-12.3 h 5.3 c 6.8,0 12.4,5.6 12.4,12.3 v 60.8 z"
     id="path19"
     inkscape:connector-curvature="0"
     style="fill:#a9a9aa" /><path
     d="m 116.40132,359.90132 c -3.4,5.9 -11,7.9 -16.9,4.5 l -4.6,-2.6 c -5.9,-3.4 -7.9,-11 -4.5,-16.9 l 30.4,-52.7 c 3.4,-5.9 11,-7.9 16.9,-4.5 l 4.6,2.7 c 5.9,3.4 7.9,11 4.5,16.9 l -30.4,52.6 z"
     id="path42"
     inkscape:connector-curvature="0"
     style="fill:#969596" /><path
     d="m 44.20132,298.70132 c -5.9,3.4 -13.5,1.3 -16.9,-4.5 l -2.7,-4.6 c -3.4,-5.9 -1.4,-13.5 4.5,-16.9 l 52.7,-30.4 c 5.9,-3.4 13.5,-1.4 16.9,4.5 l 2.6,4.6 c 3.4,5.9 1.4,13.5 -4.5,16.9 l -52.6,30.4 z"
     id="path40"
     inkscape:connector-curvature="0"
     style="fill:#808081" /><path
     d="m 12.30132,209.60132 c -6.8,0 -12.4,-5.6 -12.3,-12.4 l 0,-5.3 c 0,-6.8 5.6,-12.4 12.4,-12.4 h 60.8 c 6.8,0 12.4,5.6 12.4,12.4 v 5.3 c 0,6.8 -5.6,12.4 -12.4,12.4 l -60.9,0 z"
     id="path38"
     inkscape:connector-curvature="0"
     style="fill:#6b6b6b" /><path
     d="m 29.20132,116.40132 c -5.9,-3.4 -7.9,-11 -4.5,-16.9 l 2.6,-4.6 c 3.4,-5.9 11,-7.9 16.9,-4.5 l 52.7,30.4 c 5.9,3.4 7.9,11 4.5,16.9 l -2.7,4.6 c -3.4,5.9 -11,7.9 -16.9,4.5 l -52.6,-30.4 z"
     id="path36"
     inkscape:connector-curvature="0"
     style="fill:#565656" /><path
     d="m 90.40132,44.20132 c -3.4,-5.9 -1.4,-13.5 4.5,-16.9 l 4.6,-2.7 c 5.9,-3.4 13.5,-1.4 16.9,4.5 l 30.4,52.7 c 3.4,5.9 1.4,13.5 -4.5,16.9 l -4.6,2.6 c -5.9,3.4 -13.5,1.4 -16.9,-4.5 l -30.4,-52.6 z"
     id="path34"
     inkscape:connector-curvature="0"
     style="fill:#231f20" /><path
     d="m 179.50132,12.30132 c 0,-6.8 5.6,-12.4 12.4,-12.3 l 5.3,0 c 6.8,0 12.4,5.6 12.4,12.4 l 0,60.8 c 0,6.8 -5.6,12.3 -12.4,12.4 l -5.3,0 c -6.8,0 -12.4,-5.6 -12.4,-12.3 l 0,-61 z"
     id="path32"
     inkscape:connector-curvature="0"
     style="fill:url(#linearGradient3059)" /></svg>
